<svg xmlns="http://www.w3.org/2000/svg" xmlns:xlink="http://www.w3.org/1999/xlink" contentStyleType="text/css" data-diagram-type="CLASS" height="1279" preserveAspectRatio="none" style="width:899px;height:1279px;background:#FFFFFF;" version="1.1" viewBox="0 0 899 1279" width="899" zoomAndPan="magnify"><defs/><g><!--cluster M--><g id="cluster_M"><path d="M273.13,486.59 L351.5196,486.59 A3.75,3.75 0 0 1 354.0196,489.09 L361.0196,508.8869 L604.63,508.8869 A2.5,2.5 0 0 1 607.13,511.3869 L607.13,1145.09 A2.5,2.5 0 0 1 604.63,1147.59 L273.13,1147.59 A2.5,2.5 0 0 1 270.63,1145.09 L270.63,489.09 A2.5,2.5 0 0 1 273.13,486.59 " fill="none" style="stroke:#000000;stroke-width:1.5;"/><line style="stroke:#000000;stroke-width:1.5;" x1="270.63" x2="361.0196" y1="508.8869" y2="508.8869"/><text fill="#000000" font-family="sans-serif" font-size="14" font-weight="bold" lengthAdjust="spacing" textLength="77.3896" x="274.63" y="501.5851">Messages</text></g><!--cluster Stages--><g id="cluster_Stages"><path d="M8.5,111.59 L63.5723,111.59 A3.75,3.75 0 0 1 66.0723,114.09 L73.0723,133.8869 L571.62,133.8869 A2.5,2.5 0 0 1 574.12,136.3869 L574.12,460.09 A2.5,2.5 0 0 1 571.62,462.59 L8.5,462.59 A2.5,2.5 0 0 1 6,460.09 L6,114.09 A2.5,2.5 0 0 1 8.5,111.59 " fill="none" style="stroke:#000000;stroke-width:1.5;"/><line style="stroke:#000000;stroke-width:1.5;" x1="6" x2="73.0723" y1="133.8869" y2="133.8869"/><text fill="#000000" font-family="sans-serif" font-size="14" font-weight="bold" lengthAdjust="spacing" textLength="54.0723" x="10" y="126.5851">Stages</text></g><!--cluster App Specs--><g id="cluster_App Specs"><path d="M633.63,753.59 L716.6134,753.59 A3.75,3.75 0 0 1 719.1134,756.09 L726.1134,775.8869 L890.07,775.8869 A2.5,2.5 0 0 1 892.57,778.3869 L892.57,1270.09 A2.5,2.5 0 0 1 890.07,1272.59 L633.63,1272.59 A2.5,2.5 0 0 1 631.13,1270.09 L631.13,756.09 A2.5,2.5 0 0 1 633.63,753.59 " fill="none" style="stroke:#000000;stroke-width:1.5;"/><line style="stroke:#000000;stroke-width:1.5;" x1="631.13" x2="726.1134" y1="775.8869" y2="775.8869"/><text fill="#000000" font-family="sans-serif" font-size="14" font-weight="bold" lengthAdjust="spacing" textLength="81.9834" x="635.13" y="768.5851">App Specs</text></g><!--class AppStartMessage--><g id="elem_AppStartMessage"><rect codeLine="33" fill="#F1F1F1" height="170.375" id="AppStartMessage" rx="2.5" ry="2.5" style="stroke:#181818;stroke-width:0.5;" width="288.5" x="294.63" y="953.4"/><ellipse cx="373.1749" cy="969.4" fill="#ADD1B2" rx="11" ry="11" style="stroke:#181818;stroke-width:1;"/><path d="M376.1437,975.0406 Q375.5655,975.3375 374.9249,975.4781 Q374.2843,975.6344 373.5812,975.6344 Q371.0812,975.6344 369.753,973.9937 Q368.4405,972.3375 368.4405,969.2125 Q368.4405,966.0875 369.753,964.4312 Q371.0812,962.775 373.5812,962.775 Q374.2843,962.775 374.9249,962.9312 Q375.5812,963.0875 376.1437,963.3844 L376.1437,966.1031 Q375.5187,965.525 374.9249,965.2594 Q374.3312,964.9781 373.7062,964.9781 Q372.3624,964.9781 371.6749,966.0562 Q370.9874,967.1187 370.9874,969.2125 Q370.9874,971.3062 371.6749,972.3844 Q372.3624,973.4469 373.7062,973.4469 Q374.3312,973.4469 374.9249,973.1812 Q375.5187,972.9 376.1437,972.3219 L376.1437,975.0406 Z " fill="#000000"/><text fill="#000000" font-family="sans-serif" font-size="14" lengthAdjust="spacing" textLength="122.9102" x="393.6749" y="974.2467">AppStartMessage</text><line style="stroke:#181818;stroke-width:0.5;" x1="295.63" x2="582.13" y1="985.4" y2="985.4"/><text fill="#000000" font-family="sans-serif" font-size="14" lengthAdjust="spacing" textLength="147.9502" x="300.63" y="1002.3951">application_id: String</text><text fill="#000000" font-family="sans-serif" font-size="14" lengthAdjust="spacing" textLength="124.0039" x="300.63" y="1018.692">app_name: String</text><text fill="#000000" font-family="sans-serif" font-size="14" lengthAdjust="spacing" textLength="108.2744" x="300.63" y="1034.9889">app_time: Long</text><text fill="#000000" font-family="sans-serif" font-size="14" lengthAdjust="spacing" textLength="145.25" x="300.63" y="1051.2857">is_adaptive: Boolean</text><text fill="#000000" font-family="sans-serif" font-size="14" lengthAdjust="spacing" textLength="151.0332" x="300.63" y="1067.5826">app_specs: AppSpecs</text><text fill="#000000" font-family="sans-serif" font-size="14" lengthAdjust="spacing" textLength="181.5967" x="300.63" y="1083.8795">driver_specs: DriverSpecs</text><text fill="#000000" font-family="sans-serif" font-size="14" lengthAdjust="spacing" textLength="221.3477" x="300.63" y="1100.1764">executor_specs: ExecutorSpecs</text><text fill="#000000" font-family="sans-serif" font-size="14" lengthAdjust="spacing" textLength="276.5" x="300.63" y="1116.4732">environment_specs: EnvironmentSpecs</text></g><!--class JobStartMessage--><g id="elem_JobStartMessage"><rect codeLine="45" fill="#F1F1F1" height="105.1875" id="JobStartMessage" rx="2.5" ry="2.5" style="stroke:#181818;stroke-width:0.5;" width="155.9512" x="360.9" y="843"/><ellipse cx="378.9647" cy="859" fill="#ADD1B2" rx="11" ry="11" style="stroke:#181818;stroke-width:1;"/><path d="M381.9335,864.6406 Q381.3554,864.9375 380.7147,865.0781 Q380.0741,865.2344 379.371,865.2344 Q376.871,865.2344 375.5429,863.5938 Q374.2304,861.9375 374.2304,858.8125 Q374.2304,855.6875 375.5429,854.0313 Q376.871,852.375 379.371,852.375 Q380.0741,852.375 380.7147,852.5313 Q381.371,852.6875 381.9335,852.9844 L381.9335,855.7031 Q381.3085,855.125 380.7147,854.8594 Q380.121,854.5781 379.496,854.5781 Q378.1522,854.5781 377.4647,855.6563 Q376.7772,856.7188 376.7772,858.8125 Q376.7772,860.9063 377.4647,861.9844 Q378.1522,863.0469 379.496,863.0469 Q380.121,863.0469 380.7147,862.7813 Q381.3085,862.5 381.9335,861.9219 L381.9335,864.6406 Z " fill="#000000"/><text fill="#000000" font-family="sans-serif" font-size="14" lengthAdjust="spacing" textLength="117.1406" x="393.6458" y="863.8467">JobStartMessage</text><line style="stroke:#181818;stroke-width:0.5;" x1="361.9" x2="515.8512" y1="875" y2="875"/><text fill="#000000" font-family="sans-serif" font-size="14" lengthAdjust="spacing" textLength="143.9512" x="366.9" y="891.9951">app_event_id: String</text><text fill="#000000" font-family="sans-serif" font-size="14" lengthAdjust="spacing" textLength="108.2744" x="366.9" y="908.292">app_time: Long</text><text fill="#000000" font-family="sans-serif" font-size="14" lengthAdjust="spacing" textLength="68.7764" x="366.9" y="924.5889">job_id: Int</text><text fill="#000000" font-family="sans-serif" font-size="14" lengthAdjust="spacing" textLength="135.2285" x="366.9" y="940.8857">num_executors: Int</text></g><!--class JobEndMessage--><g id="elem_JobEndMessage"><rect codeLine="53" fill="#F1F1F1" height="137.7813" id="JobEndMessage" rx="2.5" ry="2.5" style="stroke:#181818;stroke-width:0.5;" width="212.1631" x="332.8" y="700.7"/><ellipse cx="379.8586" cy="716.7" fill="#ADD1B2" rx="11" ry="11" style="stroke:#181818;stroke-width:1;"/><path d="M382.8273,722.3406 Q382.2492,722.6375 381.6086,722.7781 Q380.968,722.9344 380.2648,722.9344 Q377.7648,722.9344 376.4367,721.2937 Q375.1242,719.6375 375.1242,716.5125 Q375.1242,713.3875 376.4367,711.7312 Q377.7648,710.075 380.2648,710.075 Q380.968,710.075 381.6086,710.2312 Q382.2648,710.3875 382.8273,710.6844 L382.8273,713.4031 Q382.2023,712.825 381.6086,712.5594 Q381.0148,712.2781 380.3898,712.2781 Q379.0461,712.2781 378.3586,713.3562 Q377.6711,714.4187 377.6711,716.5125 Q377.6711,718.6062 378.3586,719.6844 Q379.0461,720.7469 380.3898,720.7469 Q381.0148,720.7469 381.6086,720.4812 Q382.2023,720.2 382.8273,719.6219 L382.8273,722.3406 Z " fill="#000000"/><text fill="#000000" font-family="sans-serif" font-size="14" lengthAdjust="spacing" textLength="109.5459" x="400.3586" y="721.5467">JobEndMessage</text><line style="stroke:#181818;stroke-width:0.5;" x1="333.8" x2="543.9631" y1="732.7" y2="732.7"/><text fill="#000000" font-family="sans-serif" font-size="14" lengthAdjust="spacing" textLength="143.9512" x="338.8" y="749.6951">app_event_id: String</text><text fill="#000000" font-family="sans-serif" font-size="14" lengthAdjust="spacing" textLength="108.2744" x="338.8" y="765.992">app_time: Long</text><text fill="#000000" font-family="sans-serif" font-size="14" lengthAdjust="spacing" textLength="68.7764" x="338.8" y="782.2889">job_id: Int</text><text fill="#000000" font-family="sans-serif" font-size="14" lengthAdjust="spacing" textLength="135.2285" x="338.8" y="798.5857">num_executors: Int</text><text fill="#000000" font-family="sans-serif" font-size="14" lengthAdjust="spacing" textLength="200.1631" x="338.8" y="814.8826">rescaling_time_ratio: Double</text><text fill="#000000" font-family="sans-serif" font-size="14" lengthAdjust="spacing" textLength="199.4658" x="338.8" y="831.1795">stages: Map&lt;String, Stage&gt;</text></g><!--class AppEndMessage--><g id="elem_AppEndMessage"><rect codeLine="63" fill="#F1F1F1" height="88.8906" id="AppEndMessage" rx="2.5" ry="2.5" style="stroke:#181818;stroke-width:0.5;" width="155.9512" x="360.9" y="607.14"/><ellipse cx="379.7861" cy="623.14" fill="#ADD1B2" rx="11" ry="11" style="stroke:#181818;stroke-width:1;"/><path d="M382.7548,628.7806 Q382.1767,629.0775 381.5361,629.2181 Q380.8955,629.3744 380.1923,629.3744 Q377.6923,629.3744 376.3642,627.7337 Q375.0517,626.0775 375.0517,622.9525 Q375.0517,619.8275 376.3642,618.1712 Q377.6923,616.515 380.1923,616.515 Q380.8955,616.515 381.5361,616.6712 Q382.1923,616.8275 382.7548,617.1244 L382.7548,619.8431 Q382.1298,619.265 381.5361,618.9994 Q380.9423,618.7181 380.3173,618.7181 Q378.9736,618.7181 378.2861,619.7962 Q377.5986,620.8587 377.5986,622.9525 Q377.5986,625.0462 378.2861,626.1244 Q378.9736,627.1869 380.3173,627.1869 Q380.9423,627.1869 381.5361,626.9212 Q382.1298,626.64 382.7548,626.0619 L382.7548,628.7806 Z " fill="#000000"/><text fill="#000000" font-family="sans-serif" font-size="14" lengthAdjust="spacing" textLength="115.3154" x="394.6497" y="627.9867">AppEndMessage</text><line style="stroke:#181818;stroke-width:0.5;" x1="361.9" x2="515.8512" y1="639.14" y2="639.14"/><text fill="#000000" font-family="sans-serif" font-size="14" lengthAdjust="spacing" textLength="143.9512" x="366.9" y="656.1351">app_event_id: String</text><text fill="#000000" font-family="sans-serif" font-size="14" lengthAdjust="spacing" textLength="108.2744" x="366.9" y="672.432">app_time: Long</text><text fill="#000000" font-family="sans-serif" font-size="14" lengthAdjust="spacing" textLength="135.2285" x="366.9" y="688.7289">num_executors: Int</text></g><!--class ResponseMessage--><g id="elem_ResponseMessage"><rect codeLine="70" fill="#F1F1F1" height="72.5938" id="ResponseMessage" rx="2.5" ry="2.5" style="stroke:#181818;stroke-width:0.5;" width="214.4395" x="331.66" y="529.29"/><ellipse cx="370.6058" cy="545.29" fill="#ADD1B2" rx="11" ry="11" style="stroke:#181818;stroke-width:1;"/><path d="M373.5746,550.9306 Q372.9964,551.2275 372.3558,551.3681 Q371.7152,551.5244 371.0121,551.5244 Q368.5121,551.5244 367.1839,549.8838 Q365.8714,548.2275 365.8714,545.1025 Q365.8714,541.9775 367.1839,540.3213 Q368.5121,538.665 371.0121,538.665 Q371.7152,538.665 372.3558,538.8213 Q373.0121,538.9775 373.5746,539.2744 L373.5746,541.9931 Q372.9496,541.415 372.3558,541.1494 Q371.7621,540.8681 371.1371,540.8681 Q369.7933,540.8681 369.1058,541.9463 Q368.4183,543.0088 368.4183,545.1025 Q368.4183,547.1963 369.1058,548.2744 Q369.7933,549.3369 371.1371,549.3369 Q371.7621,549.3369 372.3558,549.0713 Q372.9496,548.79 373.5746,548.2119 L373.5746,550.9306 Z " fill="#000000"/><text fill="#000000" font-family="sans-serif" font-size="14" lengthAdjust="spacing" textLength="129.2266" x="389.9271" y="550.1367">ResponseMessage</text><line style="stroke:#181818;stroke-width:0.5;" x1="332.66" x2="545.0995" y1="561.29" y2="561.29"/><text fill="#000000" font-family="sans-serif" font-size="14" lengthAdjust="spacing" textLength="143.9512" x="337.66" y="578.2851">app_event_id: String</text><text fill="#000000" font-family="sans-serif" font-size="14" lengthAdjust="spacing" textLength="202.4395" x="337.66" y="594.582">recommended_scale_out: Int</text></g><!--class StageMetrics--><g id="elem_StageMetrics"><rect codeLine="79" fill="#F1F1F1" height="121.4844" id="StageMetrics" rx="2.5" ry="2.5" style="stroke:#181818;stroke-width:0.5;" width="238.4883" x="319.64" y="235.85"/><ellipse cx="388.9974" cy="251.85" fill="#ADD1B2" rx="11" ry="11" style="stroke:#181818;stroke-width:1;"/><path d="M391.9662,257.4906 Q391.388,257.7875 390.7474,257.9281 Q390.1068,258.0844 389.4037,258.0844 Q386.9037,258.0844 385.5755,256.4437 Q384.263,254.7875 384.263,251.6625 Q384.263,248.5375 385.5755,246.8812 Q386.9037,245.225 389.4037,245.225 Q390.1068,245.225 390.7474,245.3812 Q391.4037,245.5375 391.9662,245.8344 L391.9662,248.5531 Q391.3412,247.975 390.7474,247.7094 Q390.1537,247.4281 389.5287,247.4281 Q388.1849,247.4281 387.4974,248.5062 Q386.8099,249.5687 386.8099,251.6625 Q386.8099,253.7562 387.4974,254.8344 Q388.1849,255.8969 389.5287,255.8969 Q390.1537,255.8969 390.7474,255.6312 Q391.3412,255.35 391.9662,254.7719 L391.9662,257.4906 Z " fill="#000000"/><text fill="#000000" font-family="sans-serif" font-size="14" lengthAdjust="spacing" textLength="91.2734" x="409.4974" y="256.6967">StageMetrics</text><line style="stroke:#181818;stroke-width:0.5;" x1="320.64" x2="557.1283" y1="267.85" y2="267.85"/><text fill="#000000" font-family="sans-serif" font-size="14" lengthAdjust="spacing" textLength="160.0088" x="325.64" y="284.8451">cpu_utilization: Double</text><text fill="#000000" font-family="sans-serif" font-size="14" lengthAdjust="spacing" textLength="153.2686" x="325.64" y="301.142">gc_time_ratio: Double</text><text fill="#000000" font-family="sans-serif" font-size="14" lengthAdjust="spacing" textLength="226.4883" x="325.64" y="317.4389">shuffle_read_write_ratio: Double</text><text fill="#000000" font-family="sans-serif" font-size="14" lengthAdjust="spacing" textLength="187.2432" x="325.64" y="333.7357">input_output_ratio: Double</text><text fill="#000000" font-family="sans-serif" font-size="14" lengthAdjust="spacing" textLength="191.3994" x="325.64" y="350.0326">memory_spill_ratio: Double</text></g><!--class Stage--><g id="elem_Stage"><rect codeLine="87" fill="#F1F1F1" height="300.75" id="Stage" rx="2.5" ry="2.5" style="stroke:#181818;stroke-width:0.5;" width="232.6299" x="22" y="146.22"/><ellipse cx="113.8374" cy="162.22" fill="#ADD1B2" rx="11" ry="11" style="stroke:#181818;stroke-width:1;"/><path d="M116.8062,167.8606 Q116.228,168.1575 115.5874,168.2981 Q114.9468,168.4544 114.2437,168.4544 Q111.7437,168.4544 110.4155,166.8138 Q109.103,165.1575 109.103,162.0325 Q109.103,158.9075 110.4155,157.2513 Q111.7437,155.595 114.2437,155.595 Q114.9468,155.595 115.5874,155.7513 Q116.2437,155.9075 116.8062,156.2044 L116.8062,158.9231 Q116.1812,158.345 115.5874,158.0794 Q114.9937,157.7981 114.3687,157.7981 Q113.0249,157.7981 112.3374,158.8763 Q111.6499,159.9388 111.6499,162.0325 Q111.6499,164.1263 112.3374,165.2044 Q113.0249,166.2669 114.3687,166.2669 Q114.9937,166.2669 115.5874,166.0013 Q116.1812,165.72 116.8062,165.1419 L116.8062,167.8606 Z " fill="#000000"/><text fill="#000000" font-family="sans-serif" font-size="14" lengthAdjust="spacing" textLength="40.4551" x="134.3374" y="167.0667">Stage</text><line style="stroke:#181818;stroke-width:0.5;" x1="23" x2="253.6299" y1="178.22" y2="178.22"/><text fill="#000000" font-family="sans-serif" font-size="14" lengthAdjust="spacing" textLength="109.5869" x="28" y="195.2151">stage_id: String</text><text fill="#000000" font-family="sans-serif" font-size="14" lengthAdjust="spacing" textLength="136.5137" x="28" y="211.512">stage_name: String</text><text fill="#000000" font-family="sans-serif" font-size="14" lengthAdjust="spacing" textLength="102.8057" x="28" y="227.8089">num_tasks: Int</text><text fill="#000000" font-family="sans-serif" font-size="14" lengthAdjust="spacing" textLength="208.2021" x="28" y="244.1057">parent_stage_ids: Array&lt;Int&gt;</text><text fill="#000000" font-family="sans-serif" font-size="14" lengthAdjust="spacing" textLength="103.6191" x="28" y="260.4026">attempt_id: Int</text><text fill="#000000" font-family="sans-serif" font-size="14" lengthAdjust="spacing" textLength="150.1582" x="28" y="276.6995">failure_reason: String</text><text fill="#000000" font-family="sans-serif" font-size="14" lengthAdjust="spacing" textLength="114.5293" x="28" y="292.9964">start_time: Long</text><text fill="#000000" font-family="sans-serif" font-size="14" lengthAdjust="spacing" textLength="108.2949" x="28" y="309.2932">end_time: Long</text><text fill="#000000" font-family="sans-serif" font-size="14" lengthAdjust="spacing" textLength="133.2666" x="28" y="325.5901">start_scale_out: Int</text><text fill="#000000" font-family="sans-serif" font-size="14" lengthAdjust="spacing" textLength="127.0322" x="28" y="341.887">end_scale_out: Int</text><text fill="#000000" font-family="sans-serif" font-size="14" lengthAdjust="spacing" textLength="200.1631" x="28" y="358.1839">rescaling_time_ratio: Double</text><text fill="#000000" font-family="sans-serif" font-size="14" lengthAdjust="spacing" textLength="163.2832" x="28" y="374.4807">rdd_num_partitions: Int</text><text fill="#000000" font-family="sans-serif" font-size="14" lengthAdjust="spacing" textLength="220.6299" x="28" y="390.7776">rdd_num_cached_partitions: Int</text><text fill="#000000" font-family="sans-serif" font-size="14" lengthAdjust="spacing" textLength="143.8555" x="28" y="407.0745">rdd_mem_size: Long</text><text fill="#000000" font-family="sans-serif" font-size="14" lengthAdjust="spacing" textLength="136.1445" x="28" y="423.3714">rdd_disk_size: Long</text><text fill="#000000" font-family="sans-serif" font-size="14" lengthAdjust="spacing" textLength="152.8174" x="28" y="439.6682">metrics: StageMetrics</text></g><!--class EnvironmentSpecs--><g id="elem_EnvironmentSpecs"><rect codeLine="110" fill="#F1F1F1" height="121.4844" id="EnvironmentSpecs" rx="2.5" ry="2.5" style="stroke:#181818;stroke-width:0.5;" width="173.5811" x="675.06" y="1134.85"/><ellipse cx="694.7859" cy="1150.85" fill="#ADD1B2" rx="11" ry="11" style="stroke:#181818;stroke-width:1;"/><path d="M697.7546,1156.4906 Q697.1765,1156.7875 696.5359,1156.9281 Q695.8953,1157.0844 695.1921,1157.0844 Q692.6921,1157.0844 691.364,1155.4438 Q690.0515,1153.7875 690.0515,1150.6625 Q690.0515,1147.5375 691.364,1145.8813 Q692.6921,1144.225 695.1921,1144.225 Q695.8953,1144.225 696.5359,1144.3813 Q697.1921,1144.5375 697.7546,1144.8344 L697.7546,1147.5531 Q697.1296,1146.975 696.5359,1146.7094 Q695.9421,1146.4281 695.3171,1146.4281 Q693.9734,1146.4281 693.2859,1147.5063 Q692.5984,1148.5688 692.5984,1150.6625 Q692.5984,1152.7563 693.2859,1153.8344 Q693.9734,1154.8969 695.3171,1154.8969 Q695.9421,1154.8969 696.5359,1154.6313 Q697.1296,1154.35 697.7546,1153.7719 L697.7546,1156.4906 Z " fill="#000000"/><text fill="#000000" font-family="sans-serif" font-size="14" lengthAdjust="spacing" textLength="131.0791" x="709.8361" y="1155.6967">EnvironmentSpecs</text><line style="stroke:#181818;stroke-width:0.5;" x1="676.06" x2="847.6411" y1="1166.85" y2="1166.85"/><text fill="#000000" font-family="sans-serif" font-size="14" lengthAdjust="spacing" textLength="149.3857" x="681.06" y="1183.8451">machine_type: String</text><text fill="#000000" font-family="sans-serif" font-size="14" lengthAdjust="spacing" textLength="161.5811" x="681.06" y="1200.142">hadoop_version: String</text><text fill="#000000" font-family="sans-serif" font-size="14" lengthAdjust="spacing" textLength="147.8477" x="681.06" y="1216.4389">spark_version: String</text><text fill="#000000" font-family="sans-serif" font-size="14" lengthAdjust="spacing" textLength="145.2637" x="681.06" y="1232.7357">scala_version: String</text><text fill="#000000" font-family="sans-serif" font-size="14" lengthAdjust="spacing" textLength="138.5576" x="681.06" y="1249.0326">java_version: String</text></g><!--class DriverSpecs--><g id="elem_DriverSpecs"><rect codeLine="118" fill="#F1F1F1" height="88.8906" id="DriverSpecs" rx="2.5" ry="2.5" style="stroke:#181818;stroke-width:0.5;" width="194.6152" x="664.54" y="1041.14"/><ellipse cx="715.3686" cy="1057.14" fill="#ADD1B2" rx="11" ry="11" style="stroke:#181818;stroke-width:1;"/><path d="M718.3374,1062.7806 Q717.7592,1063.0775 717.1186,1063.2181 Q716.478,1063.3744 715.7749,1063.3744 Q713.2749,1063.3744 711.9467,1061.7337 Q710.6342,1060.0775 710.6342,1056.9525 Q710.6342,1053.8275 711.9467,1052.1712 Q713.2749,1050.515 715.7749,1050.515 Q716.478,1050.515 717.1186,1050.6712 Q717.7749,1050.8275 718.3374,1051.1244 L718.3374,1053.8431 Q717.7124,1053.265 717.1186,1052.9994 Q716.5249,1052.7181 715.8999,1052.7181 Q714.5561,1052.7181 713.8686,1053.7962 Q713.1811,1054.8587 713.1811,1056.9525 Q713.1811,1059.0462 713.8686,1060.1244 Q714.5561,1061.1869 715.8999,1061.1869 Q716.5249,1061.1869 717.1186,1060.9212 Q717.7124,1060.64 718.3374,1060.0619 L718.3374,1062.7806 Z " fill="#000000"/><text fill="#000000" font-family="sans-serif" font-size="14" lengthAdjust="spacing" textLength="84.458" x="735.8686" y="1061.9867">DriverSpecs</text><line style="stroke:#181818;stroke-width:0.5;" x1="665.54" x2="858.1552" y1="1073.14" y2="1073.14"/><text fill="#000000" font-family="sans-serif" font-size="14" lengthAdjust="spacing" textLength="65.584" x="670.54" y="1090.1351">cores: Int</text><text fill="#000000" font-family="sans-serif" font-size="14" lengthAdjust="spacing" textLength="109.4434" x="670.54" y="1106.432">memory: String</text><text fill="#000000" font-family="sans-serif" font-size="14" lengthAdjust="spacing" textLength="182.6152" x="670.54" y="1122.7289">memory_overhead: String</text></g><!--class ExecutorSpecs--><g id="elem_ExecutorSpecs"><rect codeLine="124" fill="#F1F1F1" height="88.8906" id="ExecutorSpecs" rx="2.5" ry="2.5" style="stroke:#181818;stroke-width:0.5;" width="194.6152" x="664.54" y="947.14"/><ellipse cx="706.1405" cy="963.14" fill="#ADD1B2" rx="11" ry="11" style="stroke:#181818;stroke-width:1;"/><path d="M709.1093,968.7806 Q708.5312,969.0775 707.8905,969.2181 Q707.2499,969.3744 706.5468,969.3744 Q704.0468,969.3744 702.7187,967.7337 Q701.4062,966.0775 701.4062,962.9525 Q701.4062,959.8275 702.7187,958.1712 Q704.0468,956.515 706.5468,956.515 Q707.2499,956.515 707.8905,956.6712 Q708.5468,956.8275 709.1093,957.1244 L709.1093,959.8431 Q708.4843,959.265 707.8905,958.9994 Q707.2968,958.7181 706.6718,958.7181 Q705.328,958.7181 704.6405,959.7962 Q703.953,960.8587 703.953,962.9525 Q703.953,965.0462 704.6405,966.1244 Q705.328,967.1869 706.6718,967.1869 Q707.2968,967.1869 707.8905,966.9212 Q708.4843,966.64 709.1093,966.0619 L709.1093,968.7806 Z " fill="#000000"/><text fill="#000000" font-family="sans-serif" font-size="14" lengthAdjust="spacing" textLength="103.5029" x="726.0518" y="967.9867">ExecutorSpecs</text><line style="stroke:#181818;stroke-width:0.5;" x1="665.54" x2="858.1552" y1="979.14" y2="979.14"/><text fill="#000000" font-family="sans-serif" font-size="14" lengthAdjust="spacing" textLength="65.584" x="670.54" y="996.1351">cores: Int</text><text fill="#000000" font-family="sans-serif" font-size="14" lengthAdjust="spacing" textLength="109.4434" x="670.54" y="1012.432">memory: String</text><text fill="#000000" font-family="sans-serif" font-size="14" lengthAdjust="spacing" textLength="182.6152" x="670.54" y="1028.7289">memory_overhead: String</text></g><!--class AppSpecs--><g id="elem_AppSpecs"><rect codeLine="130" fill="#F1F1F1" height="154.0781" id="AppSpecs" rx="2.5" ry="2.5" style="stroke:#181818;stroke-width:0.5;" width="229.4443" x="647.13" y="788.55"/><ellipse cx="723.2379" cy="804.55" fill="#ADD1B2" rx="11" ry="11" style="stroke:#181818;stroke-width:1;"/><path d="M726.2067,810.1906 Q725.6285,810.4875 724.9879,810.6281 Q724.3473,810.7844 723.6442,810.7844 Q721.1442,810.7844 719.816,809.1438 Q718.5035,807.4875 718.5035,804.3625 Q718.5035,801.2375 719.816,799.5813 Q721.1442,797.925 723.6442,797.925 Q724.3473,797.925 724.9879,798.0813 Q725.6442,798.2375 726.2067,798.5344 L726.2067,801.2531 Q725.5817,800.675 724.9879,800.4094 Q724.3942,800.1281 723.7692,800.1281 Q722.4254,800.1281 721.7379,801.2063 Q721.0504,802.2688 721.0504,804.3625 Q721.0504,806.4563 721.7379,807.5344 Q722.4254,808.5969 723.7692,808.5969 Q724.3942,808.5969 724.9879,808.3313 Q725.5817,808.05 726.2067,807.4719 L726.2067,810.1906 Z " fill="#000000"/><text fill="#000000" font-family="sans-serif" font-size="14" lengthAdjust="spacing" textLength="68.7285" x="743.7379" y="809.3967">AppSpecs</text><line style="stroke:#181818;stroke-width:0.5;" x1="648.13" x2="875.5743" y1="820.55" y2="820.55"/><text fill="#000000" font-family="sans-serif" font-size="14" lengthAdjust="spacing" textLength="165.2178" x="653.13" y="837.5451">algorithm_name: String</text><text fill="#000000" font-family="sans-serif" font-size="14" lengthAdjust="spacing" textLength="217.4443" x="653.13" y="853.842">algorithm_args: Array&lt;String&gt;</text><text fill="#000000" font-family="sans-serif" font-size="14" lengthAdjust="spacing" textLength="115.8623" x="653.13" y="870.1389">datasize_mb: Int</text><text fill="#000000" font-family="sans-serif" font-size="14" lengthAdjust="spacing" textLength="132.6035" x="653.13" y="886.4357">target_runtime: Int</text><text fill="#000000" font-family="sans-serif" font-size="14" lengthAdjust="spacing" textLength="142.3447" x="653.13" y="902.7326">initial_executors: Int</text><text fill="#000000" font-family="sans-serif" font-size="14" lengthAdjust="spacing" textLength="130.2451" x="653.13" y="919.0295">min_executors: Int</text><text fill="#000000" font-family="sans-serif" font-size="14" lengthAdjust="spacing" textLength="134.3467" x="653.13" y="935.3264">max_executors: Int</text></g><!--class EventType--><g id="elem_EventType"><rect codeLine="15" fill="#F1F1F1" height="105.1875" id="EventType" rx="2.5" ry="2.5" style="stroke:#181818;stroke-width:0.5;" width="156.2109" x="683.75" y="7"/><ellipse cx="721.1454" cy="23" fill="#EB937F" rx="11" ry="11" style="stroke:#181818;stroke-width:1;"/><path d="M725.2548,29 L717.536,29 L717.536,16.6094 L725.2548,16.6094 L725.2548,18.7656 L719.9892,18.7656 L719.9892,21.4375 L724.7548,21.4375 L724.7548,23.5938 L719.9892,23.5938 L719.9892,26.8438 L725.2548,26.8438 L725.2548,29 Z " fill="#000000"/><text fill="#000000" font-family="sans-serif" font-size="14" lengthAdjust="spacing" textLength="74.4434" x="740.1222" y="27.8467">EventType</text><line style="stroke:#181818;stroke-width:0.5;" x1="684.75" x2="838.9609" y1="39" y2="39"/><text fill="#000000" font-family="sans-serif" font-size="14" lengthAdjust="spacing" textLength="77.0479" x="689.75" y="55.9951">JOB_START</text><text fill="#000000" font-family="sans-serif" font-size="14" lengthAdjust="spacing" textLength="61.8516" x="689.75" y="72.292">JOB_END</text><text fill="#000000" font-family="sans-serif" font-size="14" lengthAdjust="spacing" textLength="144.2109" x="689.75" y="88.5889">APPLICATION_START</text><text fill="#000000" font-family="sans-serif" font-size="14" lengthAdjust="spacing" textLength="129.0146" x="689.75" y="104.8857">APPLICATION_END</text></g><!--class Message--><g id="elem_Message"><rect codeLine="22" fill="#F1F1F1" height="40" id="Message" rx="2.5" ry="2.5" style="stroke:#181818;stroke-width:0.5;" width="93.3594" x="715.17" y="640.59"/><ellipse cx="730.17" cy="656.59" fill="#B4A7E5" rx="11" ry="11" style="stroke:#181818;stroke-width:1;"/><path d="M726.0919,652.3556 L726.0919,650.1994 L733.4825,650.1994 L733.4825,652.3556 L731.0138,652.3556 L731.0138,660.4337 L733.4825,660.4337 L733.4825,662.59 L726.0919,662.59 L726.0919,660.4337 L728.5606,660.4337 L728.5606,652.3556 L726.0919,652.3556 Z " fill="#000000"/><text fill="#000000" font-family="sans-serif" font-size="14" font-style="italic" lengthAdjust="spacing" textLength="61.3594" x="744.17" y="661.4367">Message</text><line style="stroke:#181818;stroke-width:0.5;" x1="716.17" x2="807.5294" y1="672.59" y2="672.59"/></g><!--class MessageEnvelope--><g id="elem_MessageEnvelope"><rect codeLine="24" fill="#F1F1F1" height="72.5938" id="MessageEnvelope" rx="2.5" ry="2.5" style="stroke:#181818;stroke-width:0.5;" width="173.7588" x="352" y="23.29"/><ellipse cx="369.0237" cy="39.29" fill="#ADD1B2" rx="11" ry="11" style="stroke:#181818;stroke-width:1;"/><path d="M371.9924,44.9306 Q371.4143,45.2275 370.7737,45.3681 Q370.1331,45.5244 369.4299,45.5244 Q366.9299,45.5244 365.6018,43.8837 Q364.2893,42.2275 364.2893,39.1025 Q364.2893,35.9775 365.6018,34.3212 Q366.9299,32.665 369.4299,32.665 Q370.1331,32.665 370.7737,32.8212 Q371.4299,32.9775 371.9924,33.2744 L371.9924,35.9931 Q371.3674,35.415 370.7737,35.1494 Q370.1799,34.8681 369.5549,34.8681 Q368.2112,34.8681 367.5237,35.9462 Q366.8362,37.0087 366.8362,39.1025 Q366.8362,41.1962 367.5237,42.2744 Q368.2112,43.3369 369.5549,43.3369 Q370.1799,43.3369 370.7737,43.0712 Q371.3674,42.79 371.9924,42.2119 L371.9924,44.9306 Z " fill="#000000"/><text fill="#000000" font-family="sans-serif" font-size="14" lengthAdjust="spacing" textLength="125.9316" x="383.4734" y="44.1367">MessageEnvelope</text><rect fill="#FFFFFF" height="15.9688" style="stroke:#181818;stroke-width:1;stroke-dasharray:2.0,2.0;" width="9.3301" x="519.4287" y="20.29"/><text fill="#000000" font-family="sans-serif" font-size="12" font-style="italic" lengthAdjust="spacing" textLength="7.3301" x="520.4287" y="32.4287">T</text><line style="stroke:#181818;stroke-width:0.5;" x1="353" x2="524.7588" y1="55.29" y2="55.29"/><text fill="#000000" font-family="sans-serif" font-size="14" lengthAdjust="spacing" textLength="161.7588" x="358" y="72.2851">event_type: EventType</text><text fill="#000000" font-family="sans-serif" font-size="14" lengthAdjust="spacing" textLength="73.3906" x="358" y="88.582">payload: T</text></g><!--link MessageEnvelope to Message--><g id="link_MessageEnvelope_Message"><path codeLine="28" d="M526.12,81.02 C558.06,92.9 592.07,110.86 615.13,137.59 C749.67,293.52 760.6171,546.2702 760.9671,622.2502 " fill="none" id="MessageEnvelope-to-Message" style="stroke:#181818;stroke-width:1;"/><polygon fill="none" points="761.05,640.25,766.967,622.2226,754.9671,622.2778,761.05,640.25" style="stroke:#181818;stroke-width:1;"/></g><!--link MessageEnvelope to EventType--><g id="link_MessageEnvelope_EventType"><path codeLine="29" d="M525.89,59.59 C574.92,59.59 635.85,59.59 683.38,59.59 " fill="none" id="MessageEnvelope-EventType" style="stroke:#181818;stroke-width:1;"/></g><!--link AppStartMessage to Message--><g id="link_AppStartMessage_Message"><path codeLine="43" d="M583.39,983.47 C595.73,973.84 606.7,962.63 615.13,949.59 C635.66,917.83 606.59,813.6 623.13,779.59 C644.55,735.54 675.1838,710.6334 708.1238,690.3934 " fill="none" id="AppStartMessage-to-Message" style="stroke:#181818;stroke-width:1;"/><polygon fill="none" points="723.46,680.97,704.9826,685.2813,711.2649,695.5054,723.46,680.97" style="stroke:#181818;stroke-width:1;"/></g><!--link JobStartMessage to Message--><g id="link_JobStartMessage_Message"><path codeLine="51" d="M517.11,888.93 C552.14,881.83 591.04,867.45 615.13,838.59 C632.09,818.28 610.52,802.86 623.13,779.59 C646.61,736.25 677.4157,711.1749 709.7657,690.6749 " fill="none" id="JobStartMessage-to-Message" style="stroke:#181818;stroke-width:1;"/><polygon fill="none" points="724.97,681.04,706.5541,685.6068,712.9774,695.7429,724.97,681.04" style="stroke:#181818;stroke-width:1;"/></g><!--link JobEndMessage to Message--><g id="link_JobEndMessage_Message"><path codeLine="61" d="M545.42,733.75 C602.8,714.26 653.7753,696.9461 697.8153,681.9961 " fill="none" id="JobEndMessage-to-Message" style="stroke:#181818;stroke-width:1;"/><polygon fill="none" points="714.86,676.21,695.8866,676.3145,699.744,687.6776,714.86,676.21" style="stroke:#181818;stroke-width:1;"/></g><!--link AppEndMessage to Message--><g id="link_AppEndMessage_Message"><path codeLine="68" d="M517.17,653.76 C578.94,655.49 645.447,657.3572 696.977,658.7972 " fill="none" id="AppEndMessage-to-Message" style="stroke:#181818;stroke-width:1;"/><polygon fill="none" points="714.97,659.3,697.1446,652.7995,696.8094,664.7948,714.97,659.3" style="stroke:#181818;stroke-width:1;"/></g><!--link ResponseMessage to Message--><g id="link_ResponseMessage_Message"><path codeLine="74" d="M546.14,587.39 C569.05,592.77 593.02,598.93 615.13,605.59 C649.05,615.81 669.7055,623.2647 698.1055,634.6647 " fill="none" id="ResponseMessage-to-Message" style="stroke:#181818;stroke-width:1;"/><polygon fill="none" points="714.81,641.37,700.3406,629.0965,695.8704,640.2328,714.81,641.37" style="stroke:#181818;stroke-width:1;"/></g><!--link Stage to StageMetrics--><g id="link_Stage_StageMetrics"><path codeLine="105" d="M254.75,296.59 C275.92,296.59 298.04,296.59 319.3,296.59 " fill="none" id="Stage-StageMetrics" style="stroke:#181818;stroke-width:1;"/></g><!--link Stage to JobEndMessage--><g id="link_Stage_JobEndMessage"><path codeLine="106" d="M154.51,447.39 C169.85,529.7 200.69,628.42 262.63,696.59 C281.36,717.2 306.82,732.16 332.52,742.95 " fill="none" id="Stage-JobEndMessage" style="stroke:#181818;stroke-width:1;"/></g><!--link AppStartMessage to AppSpecs--><g id="link_AppStartMessage_AppSpecs"><path codeLine="141" d="M583.19,966.6 C594.03,960.91 604.78,955.2 615.13,949.59 C625.53,943.96 636.28,938 647.02,931.97 " fill="none" id="AppStartMessage-AppSpecs" style="stroke:#181818;stroke-width:1;"/></g><!--link AppStartMessage to DriverSpecs--><g id="link_AppStartMessage_DriverSpecs"><path codeLine="142" d="M583.47,1059.62 C610.84,1063.62 638.88,1067.73 664.35,1071.46 " fill="none" id="AppStartMessage-DriverSpecs" style="stroke:#181818;stroke-width:1;"/></g><!--link AppStartMessage to ExecutorSpecs--><g id="link_AppStartMessage_ExecutorSpecs"><path codeLine="143" d="M583.47,1017.56 C610.84,1013.56 638.88,1009.45 664.35,1005.72 " fill="none" id="AppStartMessage-ExecutorSpecs" style="stroke:#181818;stroke-width:1;"/></g><!--link AppStartMessage to EnvironmentSpecs--><g id="link_AppStartMessage_EnvironmentSpecs"><path codeLine="144" d="M583.27,1110.99 C596.72,1117.66 610.17,1124.28 623.13,1130.59 C639.77,1138.69 657.61,1147.22 674.74,1155.34 " fill="none" id="AppStartMessage-EnvironmentSpecs" style="stroke:#181818;stroke-width:1;"/></g><!--SRC=[lLPDZnCn3BtFhuYuS0498N6fLYiLwA5e5n3RU-HEt3Pq9ecIJDa5-jznFgRDJASW9CGUkZEsntwsd-CqkF7CQsRbTkUPa1PhBxMgTb8WQz7lj73fPQErN-l7oksbCc2XPNK3piszjtBTULpMMZt8xyXULTLpjbIrHN38d85QgYrRe_-6g1Yzxc6BZe4IoGEwmcTMtuFTIiLUlnc7OpygHd-z_bLrB2migBr3myglb1QOP5M5gclPue3AhvuCHbSVFhtb3wlvbrL-NdnyJq_ppv_lbk_cg-MdZoTjAGjMnwgIogFTG8ti7fqZs5MLG3xBxmjrm4ORl5dTFcFWs4WS4M30mpq1cfsnaTp0KwD1pDYAGeq_VFdov-qfwAMoS5JbYfumkOGanlPwIor6cwkQmC-DUV1WVRRFEiR0c4RM4EZ19U5weCQhxLd95RGu8VOoYE_qIIWT1m76omF9tshT8AZ2tXcitIp224zP8ooPsrxvFhwLUdp4klFwPB78xmCRTP1MgpOKl3SxYywMn_WxhiEWvaMzFkZrjNhnrDp9QbsKvQjUHykbybb2TELzNkwiIF36ONy3Rw74VmF7c4LNGqF-eXTk0sEeOxfRDvXDd0z4dD4OcviK-mLX8DdjCC42-BNqg4l_8BtVLdeOuXgGB-YCLWx_0WeTjhebwWaKFDGCkUxyEFhOxo1-C3eMCnwBI1CUWYTOKNAF5BRk3y_QTBppif7Vup0FUhEjhtNDxRhDXY3IiIxuDolzb16TkfqFMOH_b-eMMssVQFPaqroeZzKGT4ORkJAkNH9U73YXZHxSlcWXRO4uxjbBE5YiXQSRqYUoWVVO6ZzWzmPaqzcOgmi56aQsVamWQk5ObEmckXfi9yH_d1eh10_vKK9UXhuLIVQw6keTSUcQ2PMVErhH1SmW5jBjn_8sCMOsu4-LE9cwGrjcf3l91vCxu2UD4eldR4dHyHcS6zzICb9XNer52tOWj3QS5e2Ju-vGwljf3LKN9ZLVuJ2bAEXOR9j-XBJ5ehY9rmElcUgQFjmXY6d7WoNrRrttwpDxXMQhQMPtxUNGd5LqgJhDHp988oA0XehumTlr6HZncouFt7OgCR-NIqNKWsRgE6sbcXJ3uwKuflAStKcrPt5NXrlgQ2LNKqkwl3XCQ8StXmc3ySLXocHyQJZ-0W00]--></g></svg>